<?xml version="1.0" standalone="no"?>
<!DOCTYPE svg PUBLIC "-//W3C//DTD SVG 20010904//EN"
 "http://www.w3.org/TR/2001/REC-SVG-20010904/DTD/svg10.dtd">
<svg version="1.0" xmlns="http://www.w3.org/2000/svg"
 width="410.000000pt" height="410.000000pt" viewBox="0 0 410.000000 410.000000"
 preserveAspectRatio="xMidYMid meet">
<metadata>
Created by potrace 1.14, written by Peter Selinger 2001-2017
</metadata>
<g transform="translate(0.000000,410.000000) scale(0.100000,-0.100000)"
fill="#000000" stroke="none">
<path d="M609 2658 c-1 -2 -3 -25 -4 -53 -4 -68 -3 -66 -17 -64 -64 8 -71 -7
-71 -143 l0 -98 -36 -1 c-20 0 -74 0 -121 0 -47 0 -91 -3 -97 -7 -7 -5 -14
-32 -15 -60 -3 -51 -3 -52 -35 -52 -22 0 -36 -6 -43 -19 -5 -11 -10 -84 -10
-164 0 -120 3 -147 16 -158 12 -9 57 -13 165 -14 105 -1 153 -5 161 -13 9 -9
13 -58 14 -168 1 -104 5 -159 13 -167 8 -8 63 -12 168 -13 138 -1 158 1 174
17 10 10 16 25 13 34 -7 17 -9 16 63 19 29 1 56 6 60 10 5 4 8 69 8 144 l0
137 90 0 c115 1 135 8 135 45 0 29 1 29 63 32 l62 3 3 192 2 193 -22 5 c-13 3
-122 4 -243 2 l-220 -3 0 113 c0 78 -4 116 -13 125 -9 9 -45 13 -117 13 l-105
-1 0 37 0 36 160 0 160 0 0 -119 c0 -100 3 -120 16 -125 9 -3 19 -1 23 5 5 9
7 219 2 270 -1 9 -48 12 -201 12 -110 0 -201 -1 -201 -2z m-101 -407 c17 -1
15 -37 -4 -55 -12 -12 -38 -16 -115 -16 l-99 0 0 33 c0 19 2 36 4 38 4 3 173
4 214 0z m814 0 c3 -1 6 -70 5 -153 l-2 -153 -42 -1 -43 0 0 106 c0 69 -4 110
-12 118 -8 8 -59 12 -163 12 -82 0 -155 4 -161 8 -6 4 -13 17 -16 29 -6 23 1
26 82 36 14 2 339 0 352 -2z m-352 -548 l0 -123 -43 0 -42 0 1 98 c1 53 2 105
3 115 1 18 33 36 64 34 15 -1 17 -14 17 -124z"/>
<path d="M1459 2418 c0 -7 -1 -85 -2 -173 l-1 -160 75 -3 c41 -2 90 1 110 7
98 29 143 116 113 219 -25 87 -79 119 -206 121 -67 2 -88 -1 -89 -11z m170
-59 c37 -13 61 -53 61 -103 0 -73 -44 -116 -118 -116 -40 0 -41 1 -44 38 -2
20 -2 72 0 115 l4 77 32 0 c18 0 47 -5 65 -11z"/>
<path d="M2140 2255 l0 -175 35 0 34 0 3 75 3 75 60 -75 c58 -72 61 -75 103
-75 50 0 50 -1 -23 85 -86 102 -85 86 -19 162 98 115 93 103 43 103 -43 0 -46
-2 -104 -75 l-60 -75 -3 75 -3 75 -34 0 -35 0 0 -175z"/>
<path d="M2563 2398 c-6 -18 -34 -97 -62 -175 l-51 -143 39 0 c34 0 39 3 47
33 10 32 10 32 78 33 l68 1 14 -33 c12 -29 19 -34 49 -34 19 0 35 3 35 7 0 4
-11 38 -25 75 -14 38 -37 101 -51 141 -49 137 -42 127 -89 127 -38 0 -43 -3
-52 -32z m81 -129 l25 -66 -50 1 c-27 0 -49 2 -49 5 0 11 43 131 46 128 2 -2
14 -32 28 -68z"/>
<path d="M2830 2255 l0 -175 35 0 34 0 3 116 3 116 75 -113 c72 -109 77 -114
113 -117 l37 -3 0 175 0 176 -35 0 -34 0 -3 -116 -3 -117 -78 117 c-74 111
-79 116 -112 116 l-35 0 0 -175z"/>
<path d="M3198 2418 c-2 -7 -3 -85 -3 -173 l1 -160 84 -3 c72 -2 92 1 129 20
76 39 105 100 89 188 -17 96 -84 140 -214 140 -57 0 -83 -4 -86 -12z m181 -62
c32 -17 51 -54 51 -102 0 -73 -45 -114 -126 -114 -33 0 -33 0 -36 53 -2 28 -1
80 0 115 l4 62 39 0 c22 0 52 -6 68 -14z"/>
<path d="M3543 2403 c6 -16 32 -64 56 -108 43 -78 45 -87 50 -202 1 -8 15 -13
35 -13 l33 0 1 63 c0 55 6 73 56 169 31 59 56 109 56 112 0 3 -17 6 -37 6 -37
0 -39 -2 -74 -78 l-36 -77 -39 78 c-38 76 -39 77 -76 77 -37 0 -37 0 -25 -27z"/>
<path d="M1819 2355 c0 0 -1 -62 -2 -138 l-2 -137 37 0 38 0 -1 86 c-1 94 6
110 55 122 17 5 30 11 29 15 -2 4 -3 18 -3 32 0 31 -27 34 -57 6 -21 -20 -21
-20 -26 0 -4 15 -13 19 -36 17 -17 -1 -31 -2 -32 -3z"/>
<path d="M2840 1995 c-18 -21 -5 -47 22 -43 26 3 37 36 16 49 -18 12 -24 11
-38 -6z"/>
<path d="M3343 1993 c-10 -4 -13 -40 -13 -139 l0 -134 25 0 c17 0 25 6 26 18
0 9 1 70 2 134 2 120 -2 133 -40 121z"/>
<path d="M1880 1849 l0 -130 27 3 c26 3 27 5 26 56 l-2 52 55 0 c29 0 54 -3
55 -7 0 -5 1 -28 2 -53 2 -41 4 -45 27 -45 l25 0 0 128 0 128 -25 -3 c-26 -3
-27 -6 -29 -75 l-1 -33 -56 0 c-47 0 -55 3 -53 18 1 9 1 34 0 55 -1 33 -4 37
-26 37 l-25 0 0 -131z"/>
<path d="M2949 1967 c-1 -7 -2 -19 -3 -27 0 -8 -7 -14 -13 -12 -8 1 -13 -8
-13 -23 0 -14 6 -25 13 -25 8 0 13 -22 14 -68 3 -75 15 -92 68 -92 24 0 31 4
31 20 0 11 -4 21 -8 21 -4 1 -14 2 -20 3 -8 1 -14 21 -16 58 -3 52 -1 57 20
60 30 4 33 43 3 43 -13 0 -21 8 -23 23 -2 12 -6 22 -10 23 -4 0 -15 2 -24 4
-10 2 -19 -2 -19 -8z"/>
<path d="M2195 1921 c-76 -32 -82 -164 -9 -191 71 -28 138 4 153 72 19 82 -65
151 -144 119z m79 -57 c22 -21 20 -60 -4 -84 -23 -23 -33 -24 -61 -10 -22 12
-27 78 -7 98 17 17 54 15 72 -4z"/>
<path d="M2408 1916 c-22 -16 -36 -47 -31 -66 5 -18 21 -28 81 -50 17 -7 32
-19 32 -26 0 -18 -44 -18 -59 0 -11 12 -46 14 -57 3 -2 -2 3 -13 11 -24 22
-31 64 -43 104 -29 44 14 58 37 45 73 -7 21 -20 30 -57 41 -47 13 -61 34 -31
46 9 4 24 0 34 -9 19 -17 60 -20 60 -5 0 6 -12 22 -27 36 -28 26 -77 30 -105
10z"/>
<path d="M2587 1923 c-3 -5 -5 -72 -6 -150 -1 -133 0 -142 19 -148 31 -10 37
0 35 59 0 31 1 56 3 56 1 0 15 -6 30 -14 38 -20 92 -1 111 39 25 51 18 105
-18 137 -34 31 -56 34 -96 16 -16 -7 -29 -8 -33 -2 -9 12 -39 17 -45 7z m138
-59 c25 -26 16 -75 -18 -94 -27 -14 -29 -14 -53 13 -25 29 -25 55 -2 85 15 17
54 15 73 -4z"/>
<path d="M2844 1921 c-5 -3 -9 -50 -9 -103 l0 -98 27 0 27 0 -2 102 c-2 85 -5
101 -18 103 -9 2 -20 0 -25 -4z"/>
<path d="M3124 1920 c-67 -27 -72 -149 -10 -192 18 -12 81 -9 95 5 11 10 14
10 18 0 3 -7 16 -13 29 -13 24 0 24 1 24 103 0 102 0 103 -25 105 -16 1 -25
-3 -25 -13 0 -12 -4 -12 -27 1 -31 16 -48 17 -79 4z m90 -62 c9 -12 16 -30 16
-38 0 -21 -36 -60 -55 -60 -20 0 -55 40 -55 62 0 55 64 79 94 36z"/>
</g>
</svg>
